<svg xmlns="http://www.w3.org/2000/svg" width="24" height="25" fill="none"><g filter="url(#a)"><path fill="#F9F9F9" d="M18.806 10.631 10.37 2.194C8.963.73 6.656.73 5.194 2.137a3.6 3.6 0 0 0 0 5.175l.056.057L6.825 9l.788-.788-1.632-1.63c-.956-.957-.956-2.588 0-3.545.957-.956 2.588-1.012 3.544-.056l.056.056 8.381 8.382c1.013.956 1.013 2.587.057 3.543-.956 1.013-2.588 1.013-3.544.057l-.056-.056-4.163-4.163c-.562-.563-.506-1.463 0-1.969a1.466 1.466 0 0 1 1.969 0l2.306 2.306.788-.787-2.363-2.363a2.498 2.498 0 0 0-3.543.113c-.9.956-.9 2.475 0 3.488l4.218 4.218c1.406 1.463 3.713 1.463 5.175.057 1.463-1.407 1.463-3.77 0-5.232 0 .056 0 0 0 0Z"/></g><defs><filter id="a" width="26" height="26" x="-1" y="0" color-interpolation-filters="sRGB" filterUnits="userSpaceOnUse"><feFlood flood-opacity="0" result="BackgroundImageFix"/><feColorMatrix in="SourceAlpha" result="hardAlpha" values="0 0 0 0 0 0 0 0 0 0 0 0 0 0 0 0 0 0 127 0"/><feOffset dy="4"/><feGaussianBlur stdDeviation="2"/><feComposite in2="hardAlpha" operator="out"/><feColorMatrix values="0 0 0 0 0 0 0 0 0 0 0 0 0 0 0 0 0 0 0.25 0"/><feBlend in2="BackgroundImageFix" result="effect1_dropShadow_18749_5209"/><feBlend in="SourceGraphic" in2="effect1_dropShadow_18749_5209" result="shape"/></filter></defs></svg>