<svg xmlns="http://www.w3.org/2000/svg" width="20" height="20" fill="none"><path stroke="#F9F9F9" stroke-linecap="round" stroke-linejoin="round" stroke-width="2" d="M10 10 6.44 7.033c-.53-.441-.794-.662-.984-.932a2.5 2.5 0 0 1-.37-.79C5 4.994 5 4.65 5 3.96V1.667M10 10l3.56-2.967c.53-.441.794-.662.984-.932a2.5 2.5 0 0 0 .37-.79C15 4.994 15 4.65 15 3.96V1.667M10 10l-3.56 2.967c-.53.441-.794.662-.984.932a2.5 2.5 0 0 0-.37.79C5 15.006 5 15.35 5 16.04v2.293M10 10l3.56 2.967c.53.441.794.662.984.932a2.5 2.5 0 0 1 .37.79c.086.318.086.662.086 1.351v2.293M3.333 1.667h13.334M3.333 18.333h13.334"/></svg>