<svg xmlns="http://www.w3.org/2000/svg" width="182" height="17" fill="none"><path fill="#F9F9F9" d="M0 11V0h12.89c1.753 0 3.46.558 4.873 1.594a6.216 6.216 0 0 1 1.962 2.393l1.491 3.205a21.673 21.673 0 0 1 2.155-4.003l.074-.108c.245-.361.527-.696.839-1.001l.635-.62a4.313 4.313 0 0 1 1.444-.933l.055-.022A7.366 7.366 0 0 1 29.1 0H42v11H0ZM0 13h42v4H0zM56.764 14.5h-2.682l-2.538-4.374h-1.89V14.5H47.17V1.9h5.04c1.164 0 2.154.408 2.97 1.224.816.816 1.224 1.8 1.224 2.952 0 .78-.222 1.506-.666 2.178a4.191 4.191 0 0 1-1.764 1.494l2.79 4.752ZM52.21 4.222h-2.556v3.726h2.556c.468 0 .87-.18 1.206-.54a1.92 1.92 0 0 0 .504-1.332c0-.516-.168-.954-.504-1.314-.336-.36-.738-.54-1.206-.54Zm8.86 5.076v2.826h5.31V14.5h-7.793V1.9h7.704v2.376h-5.22v2.682h4.77v2.34h-4.77ZM79.486 14.5h-2.7l-.756-2.268h-5.022L70.25 14.5h-2.682l4.41-12.6h3.078l4.428 12.6Zm-5.958-9.738L71.799 9.91h3.456l-1.728-5.148ZM81.068 1.9h5.004c1.728 0 3.168.606 4.32 1.818 1.164 1.2 1.746 2.694 1.746 4.482 0 1.788-.582 3.282-1.746 4.482-1.152 1.212-2.592 1.818-4.32 1.818h-5.004V1.9Zm2.484 10.224h2.52c1.092 0 1.98-.36 2.664-1.08.684-.744 1.026-1.692 1.026-2.844 0-1.164-.342-2.106-1.026-2.826-.684-.732-1.572-1.098-2.664-1.098h-2.52v7.848Zm19.15 2.628c-1.98 0-3.366-.798-4.158-2.394l2.142-1.224c.396.792 1.068 1.188 2.016 1.188.648 0 1.134-.15 1.458-.45.336-.312.504-.744.504-1.296V1.9h2.466v8.676c0 1.32-.414 2.346-1.242 3.078-.816.732-1.878 1.098-3.186 1.098Zm17.628-1.89c-1.272 1.26-2.82 1.89-4.644 1.89-1.824 0-3.372-.63-4.644-1.89-1.26-1.284-1.89-2.838-1.89-4.662 0-1.836.63-3.384 1.89-4.644 1.272-1.272 2.82-1.908 4.644-1.908 1.824 0 3.372.636 4.644 1.908 1.272 1.26 1.908 2.808 1.908 4.644 0 1.836-.636 3.39-1.908 4.662Zm-7.542-1.692c.768.768 1.734 1.152 2.898 1.152 1.164 0 2.13-.384 2.898-1.152.78-.78 1.17-1.77 1.17-2.97 0-1.2-.39-2.19-1.17-2.97-.78-.78-1.746-1.17-2.898-1.17-1.152 0-2.118.39-2.898 1.17-.78.78-1.17 1.77-1.17 2.97 0 1.2.39 2.19 1.17 2.97Zm16.166 3.582c-1.404 0-2.556-.396-3.456-1.188-.9-.792-1.35-1.854-1.35-3.186V1.9h2.466v8.28c0 .672.192 1.2.576 1.584.396.372.984.558 1.764.558s1.362-.186 1.746-.558c.396-.384.594-.912.594-1.584V1.9h2.484v8.478c0 1.332-.45 2.394-1.35 3.186-.9.792-2.058 1.188-3.474 1.188Zm17.016-.252h-2.682l-2.538-4.374h-1.89V14.5h-2.484V1.9h5.04c1.164 0 2.154.408 2.97 1.224.816.816 1.224 1.8 1.224 2.952 0 .78-.222 1.506-.666 2.178a4.191 4.191 0 0 1-1.764 1.494l2.79 4.752Zm-4.554-10.278h-2.556v3.726h2.556c.468 0 .87-.18 1.206-.54a1.92 1.92 0 0 0 .504-1.332c0-.516-.168-.954-.504-1.314-.336-.36-.738-.54-1.206-.54Zm13.667 5.364V1.9h2.484v12.6h-1.89l-5.4-7.704V14.5h-2.484V1.9h1.89l5.4 7.686Zm7.665-.288v2.826h5.31V14.5h-7.794V1.9h7.704v2.376h-5.22v2.682h4.77v2.34h-4.77ZM177.333 1.9h2.808l-4.32 7.686V14.5h-2.466V9.586L169.053 1.9h2.808l2.736 5.256 2.736-5.256Z"/></svg>