<svg xmlns="http://www.w3.org/2000/svg" width="20" height="20" fill="none"><g stroke="#F9F9F9" stroke-linecap="round" stroke-linejoin="round" stroke-width="2" clip-path="url(#a)"><path d="M14.333 11.667c.231 0 .347 0 .44.05a.442.442 0 0 1 .184.204c.041.098.03.202.01.411a6.666 6.666 0 1 1-7.3-7.299c.21-.02.314-.031.412.01.081.035.16.107.203.184.051.093.051.209.051.44V11c0 .233 0 .35.046.44.04.078.104.141.182.181.09.046.206.046.44.046h5.332Z" opacity=".8"/><path d="M11.667 2.333c0-.23 0-.346.051-.44a.442.442 0 0 1 .203-.183c.098-.041.202-.031.411-.01A6.667 6.667 0 0 1 18.3 7.668c.021.209.032.313-.01.411a.442.442 0 0 1-.183.203c-.094.051-.21.051-.44.051h-5.334c-.233 0-.35 0-.439-.045a.416.416 0 0 1-.182-.182c-.045-.09-.045-.206-.045-.44V2.334Z"/></g><defs><clipPath id="a"><path fill="#fff" d="M0 0h20v20H0z"/></clipPath></defs></svg>