<svg xmlns="http://www.w3.org/2000/svg" width="16" height="16" fill="none"><g stroke="#686868" stroke-linecap="round" stroke-linejoin="round" stroke-width="2" clip-path="url(#a)"><path d="M11.466 9.333c.185 0 .277 0 .352.041.062.034.12.098.147.162.033.08.025.163.008.33a5.332 5.332 0 0 1-9.078 3.239 5.333 5.333 0 0 1 3.239-9.078c.167-.017.25-.025.33.008a.354.354 0 0 1 .161.147c.041.074.041.167.041.351V8.8c0 .187 0 .28.037.351a.333.333 0 0 0 .145.146c.072.036.165.036.352.036h4.266Z" opacity=".4"/><path d="M9.333 1.867c0-.185 0-.277.041-.352a.354.354 0 0 1 .162-.147c.079-.033.162-.025.33-.008a5.333 5.333 0 0 1 4.774 4.774c.016.167.025.251-.008.33a.353.353 0 0 1-.147.162c-.075.04-.167.04-.352.04H9.866c-.186 0-.28 0-.351-.036a.333.333 0 0 1-.146-.145c-.036-.072-.036-.165-.036-.352V1.867Z"/></g><defs><clipPath id="a"><path fill="#fff" d="M0 0h16v16H0z"/></clipPath></defs></svg>