<svg xmlns="http://www.w3.org/2000/svg" width="16" height="16" fill="none"><path stroke="#F9F9F9" stroke-linecap="round" stroke-linejoin="round" stroke-width="2" d="M8 8 5.151 5.626c-.423-.353-.634-.529-.787-.745a2 2 0 0 1-.295-.631C4 3.994 4 3.719 4 3.168V1.333M8 8l2.849-2.374c.423-.353.634-.529.787-.745.134-.192.235-.405.295-.631C12 3.994 12 3.719 12 3.168V1.333M8 8l-2.849 2.374c-.423.352-.634.529-.787.745a2 2 0 0 0-.295.632C4 12.006 4 12.28 4 12.832v1.835M8 8l2.849 2.374c.423.352.634.529.787.745a2 2 0 0 1 .295.632c.069.255.069.53.069 1.081v1.835M2.667 1.333h10.667M2.667 14.667h10.667"/></svg>